<?xml version="1.0" encoding="iso-8859-1"?>
<!-- Generator: Adobe Illustrator 16.0.0, SVG Export Plug-In . SVG Version: 6.00 Build 0)  -->
<!DOCTYPE svg PUBLIC "-//W3C//DTD SVG 1.1//EN" "http://www.w3.org/Graphics/SVG/1.1/DTD/svg11.dtd">
<svg version="1.1" id="Capa_1" xmlns="http://www.w3.org/2000/svg" xmlns:xlink="http://www.w3.org/1999/xlink" x="0px" y="0px"
	 width="49.559px" height="49.559px" viewBox="0 0 49.559 49.559" style="enable-background:new 0 0 49.559 49.559;"
	 xml:space="preserve">
<g>
	<g>
		<polygon points="40.516,29.583 39.729,29.605 39.697,29.178 39.825,29.232 40.133,29.2 40.1,28.807 39.25,28.817 39.014,28.51 
			39.028,28.348 37.929,27.36 37.663,27.571 39.229,29.487 39.451,29.562 39.451,29.668 39.154,29.668 39.229,29.904 41.153,29.988 
					"/>
		<polygon points="42.127,29.121 42.35,29.202 42.35,29.551 42.585,29.532 42.577,28.495 42.014,28.715 42.021,28.84 41.882,28.84 
			41.882,29.618 42.17,29.618 		"/>
		<path d="M46.945,34.059l0.373-0.85l-0.155-0.629l-0.182-0.154c0.26-0.447,0.284-0.994,0.051-1.64
			c-0.058-0.157-0.133-0.294-0.204-0.437h0.319v-0.246H46.86l-0.056-0.738l-1.372-0.624l-0.025,0.015
			c-0.553-0.375-1.182-0.658-1.832-0.901c-0.086-0.976-0.069-2.11,0.065-2.999c0.061-0.393,0.203-0.78,0.355-1.191
			c0.335-0.902,0.714-1.926,0.086-3.02c-0.229-0.399-0.544-0.731-0.907-1.008l0.048-0.063l-0.531-0.607l-1.057-0.126
			c-0.104-0.037-0.205-0.079-0.308-0.111l-0.136-0.272l0.384-0.543l0.302,0.224l0.909,0.079l1.151-0.766l0.189,0.239l-0.256,0.398
			v0.398l1.054,0.863l0.336-0.176l-0.128-0.575l-0.749-0.701l0.989-0.064v-0.288l0.479-0.095l-0.366-0.254l0.017-0.193l1.005,0.162
			l0.191-0.162l-1.356-0.574l-4.949-0.256l-0.196-0.1c-3.188-3.142-7.604-3.161-11.537-3.171c-0.012,0-0.023,0-0.034,0
			c-3.148,0-4.874,1.152-5.953,3.97c-0.056,0.146-0.104,0.295-0.156,0.442l-0.37,0.146l-0.249,0.271l0.057,0.313l0.293,0.042
			c-0.096,0.296-0.185,0.596-0.272,0.895l-0.451,0.64l-0.664,0.104l-0.095,0.566l0.279,0.067l-0.079,0.364l-0.658-0.132
			l-0.604,0.132l-0.128,0.336l0.104,0.704l0.354,0.164l0.593-0.003l0.401-0.036l0.124-0.318l0.193-0.252
			c-0.021,0.082-0.043,0.166-0.063,0.248c-0.041,0.161-0.085,0.326-0.127,0.489l-0.255,0.137H20.33l-0.28-0.028l-0.692,0.385v0.724
			l-1.415,1.022l0.117,0.437h0.287l-0.076,0.416l-0.201,0.071l-0.01,1.088l0.985,1.123c-0.383,0.496-0.805,0.923-1.291,1.238
			c-0.563,0.165-1.188,0.233-1.836,0.252l-0.01-0.017l-1.128-0.011l-0.894-0.342l-0.044-0.638l-0.298-0.522l-0.81-0.01l-0.468-0.735
			l-0.415-0.201l-0.021,0.224l-0.756,0.045l-0.278-0.386l-0.254-0.052c0.185-0.951,0.67-1.877,1.401-2.345
			c-0.169,0.275-0.372,0.551-0.372,0.551l0.466,0.228l0.725-0.789l1.364,0.377l-0.569,2.761c0,0,0.395,0.242,0.612,0
			c0.22-0.24,0.951-2.407,0.951-2.407s1.538,0.271,1.687,0.256s0.549,0.044,0.577-0.424c0.026-0.47-0.282-0.566-0.45-0.603
			c-0.17-0.036-1.436-0.309-1.436-0.309s0.002-2.422-0.166-2.699c-0.171-0.275-0.532-0.279-0.532-0.279l-0.453,2.79l-1.505-0.113
			l-0.307-0.854L12.012,22.2c0,0,0.183,0.836,0.154,1.211l-0.143-0.368c-1.317,0.511-2.076,2-2.264,3.413l-0.398,0.46L8.34,26.744
			l-0.075-1.15l-0.746-0.129l0.3-0.563l-0.087-0.324l-0.505,0.338c-0.045-0.624-0.044-1.229,0.047-1.759l1.41-0.001L8.68,23.616
			l0.543,0.251L9.18,23.081l0.391-0.394l0.789-0.52l0.055-0.365l0.788-0.82l0.837-0.463l-0.073-0.062l0.567-0.534l0.206,0.055
			l0.096,0.12l0.216-0.238l0.053-0.024l-0.236-0.032l-0.237-0.08v-0.231l0.125-0.104h0.281l0.127,0.055l0.11,0.225l0.137-0.021
			v-0.02l0.039,0.014l0.392-0.062L13.9,19.39l0.223,0.055v0.209l-0.206,0.144l0.03,0.229l0.71,0.219c0,0,0.001,0.003,0.002,0.008
			l0.164-0.014l0.011-0.309l-0.563-0.256l-0.032-0.149l0.469-0.158l0.02-0.446l-0.488-0.3l-0.032-0.755l-0.67,0.33h-0.246
			l0.065-0.576l-0.913-0.214l-0.378,0.284v0.87l-0.679,0.216l-0.271,0.567l-0.296,0.047v-0.726l-0.638-0.089l-0.318-0.207
			l-0.109-0.4c0.488-0.323,1.015-0.613,1.57-0.875l0.111-0.034l0.054,0.375l0.313-0.016l0.024-0.189l0.325-0.047l0.006-0.065
			l-0.141-0.058l-0.031-0.199l0.4-0.034l0.242-0.25l0.014-0.018h0.002l0.038-0.039c0.043-0.017,0.086-0.033,0.129-0.049l0.748-0.095
			l0.371,0.315l-0.975,0.52l1.24,0.293l0.162-0.416h0.542l0.19-0.36l-0.382-0.097v-0.457l-0.456-0.202
			c0.72-0.231,1.439-0.442,2.131-0.645c0.657-0.191,1.286-0.375,1.86-0.562c1.621-0.523,3.248-1.224,3.783-3.477
			c0.041-0.174,0.076-0.341,0.11-0.502c0.168-0.79,0.29-1.36,0.912-1.929c2.154-1.969,5.062-1.569,7.874-1.182
			c0.715,0.097,1.393,0.185,2.061,0.241c-0.233,0.225-0.501,0.441-0.501,0.441l0.394,0.339l0.897-0.585L35,8.817l-1.238,2.532
			c0,0,0.32,0.333,0.594,0.152c0.271-0.179,1.521-2.095,1.521-2.095s1.423,0.646,1.571,0.667c0.146,0.021,0.518,0.181,0.661-0.266
			c0.144-0.447-0.13-0.619-0.285-0.696c-0.154-0.078-1.313-0.657-1.313-0.657s0.606-2.345,0.513-2.654
			c-0.097-0.309-0.445-0.404-0.445-0.404l-1.134,2.592l-1.43-0.484l-0.085-0.905l-0.452-0.341c0,0-0.034,0.945-0.172,1.261
			l0.021-0.322c-0.736-0.05-1.496-0.154-2.302-0.265c-2.845-0.39-6.067-0.833-8.481,1.371c-0.8,0.73-0.957,1.47-1.14,2.326
			c-0.033,0.155-0.067,0.316-0.107,0.484c-0.405,1.708-1.466,2.35-3.283,2.938c-0.568,0.184-1.189,0.364-1.84,0.555
			c-1.383,0.403-2.933,0.859-4.396,1.474l0.366-0.333l-0.852-0.044l-0.245,0.075l-0.106,0.288l0.32,0.052l-0.04,0.201
			c-0.095,0.043-0.185,0.091-0.277,0.135l-0.29,0.018l-0.063,0.156c-0.039,0.021-0.08,0.039-0.12,0.059l-0.689,0.018
			c0,0-0.021-0.446-0.053-0.446c-0.033,0,0.615-0.011,0.615-0.011l0.469-0.458l-0.255-0.128l-0.341,0.332l-0.563-0.033l-0.34-0.468
			H8.587l-0.755,0.563h0.691l0.063,0.202l-0.182,0.171l0.769,0.021l0.115,0.277l-0.861-0.032l-0.042-0.213l-0.543-0.118
			l-0.288-0.159l-1.276,0.012L5.883,16.6l-0.267-0.021l-0.297-0.17l-0.884-0.267H2.817l-0.106,0.072
			c0.46-0.806,1.044-1.492,1.844-2.317c0.387-0.398,0.879-0.792,1.355-1.173c0.738-0.591,1.496-1.202,1.983-1.909
			c0.098,0.096,0.175,0.186,0.208,0.254c0.135,0.272,0.211,1.108,0.211,1.108l0.501-0.142l0.014-1.071l1.269-0.627l1.415,2.438
			c0,0,0.455-0.08,0.457-0.408c0.003-0.325-0.896-2.429-0.896-2.429s1.329-0.822,1.43-0.933c0.099-0.11,0.438-0.332,0.147-0.7
			c-0.293-0.367-0.589-0.235-0.738-0.149c-0.15,0.086-1.275,0.726-1.275,0.726S9.025,7.073,8.714,6.98
			C8.403,6.888,8.13,7.126,8.13,7.126L9.652,9.51l-1.198,0.918L7.656,9.994L7.119,10.18c0,0,0.182,0.132,0.389,0.299l-0.2-0.133
			c-0.42,0.632-1.156,1.221-1.868,1.79c-0.494,0.396-1.006,0.804-1.426,1.237c-1.121,1.157-1.878,2.101-2.438,3.452l-0.324,0.05
			l-0.289,0.223l0.447,0.066v0.101c-0.01,0.026-0.02,0.051-0.028,0.077H0.453L0.08,17.609l0.479,0.404l0.603,0.005
			c-1.039,3.28-1.389,6.306-1.019,8.998c0.189,1.382,0.738,2.879,1.222,4.199l0.23,0.633c0.934,2.604,2.376,3.41,5.254,4.23
			c0.204,0.059,0.421,0.124,0.63,0.186c0.519,2.645,1.46,4.305,4.148,6.24c1.533,1.104,2.994,1.658,4.338,1.658
			c1.154,0,2.223-0.408,3.178-1.225c1.139-0.975,1.994-2.322,2.277-3.758c0.709,0.041,1.422,0.074,2.131,0.074
			c1.322,0,2.626-0.111,3.852-0.494c2.871-0.897,4.985-2.666,6.312-5.256c1.106,0.17,2.246,0.225,3.389,0.225
			c0.835,0,1.671-0.027,2.494-0.055c0.35-0.011,0.693-0.013,1.04-0.021l-0.016,0.64l-0.352,0.342v0.308l1.702-0.586l1.381-0.054
			l0.512,1.123l0.448,0.017c-0.135,0.377-0.315,0.722-0.579,0.995c-0.66,0.686-1.706,0.984-2.938,0.854
			c0.047-0.258,0.103-0.484,0.103-0.484l-0.52-0.028l-0.361,1.009l-1.404,0.18L38.069,35.2c0,0-0.457-0.071-0.565,0.237
			c-0.106,0.308,0.058,2.587,0.058,2.587s-1.523,0.347-1.653,0.419c-0.13,0.07-0.523,0.171-0.369,0.613
			c0.157,0.441,0.479,0.412,0.649,0.381c0.169-0.031,1.441-0.271,1.441-0.271s0.937,2.233,1.199,2.423
			c0.264,0.188,0.598,0.055,0.598,0.055l-0.663-2.749l1.434-0.479l0.611,0.668l0.566-0.003c0,0-0.298-0.425-0.487-0.78
			c0.154,0.012,0.311,0.025,0.459,0.025c1.271,0,2.356-0.413,3.108-1.193c0.438-0.455,0.744-1.018,0.916-1.653l0.062,0.002
			L46.945,34.059z M46.572,29.905c-0.035-0.052-0.072-0.103-0.109-0.151l0.109-0.011V29.905z M43.947,28.814l-0.052,0.052
			l0.323,0.397l0.703,0.103l0.187,0.099c0.07,0.051,0.143,0.103,0.21,0.158l0.009,0.143H45.07l0.011,0.395l0.714-0.046
			c0.099,0.122,0.194,0.247,0.276,0.388l-0.244-0.013l-0.139,1.177l-0.65-0.05l-0.182-0.108l-0.023-0.467l0.345,0.071l0.292-0.284
			l-0.619-0.372h-0.53c-0.228-0.45-0.437-0.896-0.553-1.353c-0.03-0.124-0.06-0.262-0.085-0.403
			C43.773,28.735,43.859,28.776,43.947,28.814z M43.059,23.316c-0.162,0.441-0.332,0.896-0.405,1.389
			c-0.113,0.741-0.161,1.776-0.107,2.781l-0.563-0.196c-0.089-0.03-0.179-0.052-0.268-0.081l-0.027-0.148h-0.192l-0.027,0.074
			c-0.563-0.179-1.135-0.322-1.712-0.435l0.355-0.235l-0.08-0.478l-0.787-0.635l-0.031-0.575l0.223-0.303l0.399,0.129l-0.031,0.271
			l0.229,0.351l0.204-0.144l-0.112-0.413l1.116-0.402l0.491-0.409l-0.075-0.739l-0.974-1.021l-0.016-0.831h0.43l1.342,1.022
			l0.378-0.102l-0.25-0.33l-0.719-0.437l0.043-0.648l0.852,0.002l0.015-0.174c0.181,0.163,0.344,0.338,0.461,0.543
			C43.591,21.797,43.401,22.396,43.059,23.316z M35.09,26.354l0.131-0.97l0.321-0.692l0.521-0.193l0.914,0.087l1.15,1.022v0.853
			C37.137,26.362,36.127,26.333,35.09,26.354z M31.589,27.539c1.4,0.85,2.507,1.52,2.381,3.318c-0.013,0.197-0.156,0.546-0.263,0.8
			c-0.043,0.104-0.083,0.2-0.115,0.286c-0.094,0.25-0.205,0.48-0.312,0.718c-1.082-0.198-2.196-0.468-3.283-0.743l-0.322-0.082
			l0.251-1.209h-0.395l-0.383,0.768l-0.661-0.088v0.268c-0.068-0.014-0.132-0.027-0.201-0.041c-0.121-0.023-0.247-0.052-0.37-0.076
			l0.232-0.318l-0.128-1.264l-0.268-0.472l1.194-1.142l0.542-0.773c0.407-0.027,0.816-0.053,1.217-0.091
			c0.193-0.019,0.382-0.033,0.573-0.052C31.383,27.409,31.487,27.478,31.589,27.539z M24.606,17.78l0.024,0.344l-0.505,0.754
			l-0.881-0.008l-0.055-0.183l0.551-0.279l0.004-1.042l0.934-0.65h0.204v0.256l-0.635,0.387v0.255L24.606,17.78z M22.967,18.335
			l0.089,0.615h-0.16l-0.122-0.018c0.06-0.198,0.116-0.396,0.18-0.592L22.967,18.335z M22.258,20.777l0.338-0.307l0.077,0.288
			l0.997,0.675l-0.12,0.164l-0.451-0.024l0.173,0.245l0.278,0.062l0.325-0.135l-0.006-0.393l0.145-0.07l-0.116-0.124l-0.668-0.372
			l-0.174-0.495h0.554l0.176,0.176l0.479,0.411l0.021,0.498l0.495,0.527l0.185-0.722l0.341-0.188l0.065,0.592l0.334,0.366
			l1.01-0.017l0.015,0.01c-0.02,0.167-0.033,0.335-0.03,0.517c0.003,0.172,0.024,0.319,0.042,0.475l-0.093,0.085h-1.022
			l-0.622-0.463l-0.655,0.064v0.398h-0.208l-0.223-0.16l-1.134-0.287V21.84l-0.816,0.063c0.014-0.051,0.027-0.103,0.04-0.153
			C22.089,21.428,22.173,21.103,22.258,20.777z M26.875,23.646c0.012,0.04,0.021,0.085,0.033,0.124l-0.054-0.101L26.875,23.646z
			 M30.213,26.682c-0.056,0.005-0.112,0.009-0.168,0.013l0.057-0.081C30.138,26.635,30.176,26.66,30.213,26.682z M28.643,26.551
			l-0.352-0.176L27.4,24.697c0.275,0.357,0.612,0.655,1,0.916l0.014,0.202l0.329,0.331l0.482-0.032
			c0.089,0.05,0.173,0.099,0.262,0.147c0.046,0.025,0.094,0.055,0.141,0.08L28.643,26.551z M28.727,20.786l-0.021-0.495l0.106-0.243
			l0.43-0.039l0.368,0.154l0.016,0.255l-0.521-0.028l-0.027,0.237l0.654,0.437v0.318l0.282,0.209v0.224l-0.146,0.138l-0.334-0.027
			l-0.065-0.101l-0.526-0.037l0.039-0.17l0.276-0.241v-0.2L28.727,20.786z M26.826,21.409l-0.819-0.035l-0.249,0.035v-0.564
			l0.188-0.21l0.199-0.063l0.438-0.051l0.096-0.15l0.182,0.09l0.024,0.514l0.075,0.031C26.909,21.134,26.863,21.268,26.826,21.409z
			 M19.814,27.699l0.031-0.085h0.723c-0.348,0.104-0.681,0.216-0.991,0.347c0.065-0.082,0.123-0.176,0.186-0.262H19.814z
			 M21.08,27.36h0.543l0.009,0.008c-0.145,0.024-0.293,0.042-0.437,0.069c-0.104,0.02-0.188,0.057-0.287,0.08L21.08,27.36z
			 M31.465,26.577c-0.109-0.069-0.222-0.133-0.331-0.206c-0.392-0.26-0.775-0.479-1.145-0.686l0.824-0.598l0.439-0.287l-0.008-0.351
			l-0.468-0.062c0,0-1.641-0.771-1.641-0.807c0-0.034,0.011-0.663,0.011-0.663h0.359l0.056,0.459l0.759,0.436l0.87,0.042l1.884,0.31
			l0.439,0.277v0.431l-0.057,0.588l0.57,0.936C33.193,26.438,32.338,26.502,31.465,26.577z M38.621,26.008l0.511,0.578
			c-0.21-0.031-0.423-0.055-0.636-0.08L38.621,26.008z M28.623,13.652c0.011,0,0.022,0,0.034,0c3.403,0.009,7.182,0.026,10.08,2.161
			l-0.096-0.003l-0.5,0.507L37.929,16.3l-0.667-0.495H35.3l-0.91-0.544l-1.823,0.116l-1.387,0.62l0.014,0.72l-0.429,0.128
			l-0.096-0.721l-0.159-0.248l-0.479-0.118l-0.112,0.431l0.146,0.352l-1.703-0.111l-0.813,0.376l-0.123-0.355l-0.202,0.054
			l-0.147,0.394l-0.426,0.332l-1.04-0.029l-0.046-0.228l1.086-0.049l0.223-0.191l-1.309-0.607l-1.597,0.049l-0.213,0.109
			C24.715,14.384,26.118,13.652,28.623,13.652z M11.105,36.527c-0.848-0.223-1.705-0.475-2.546-0.727
			c-0.145-0.043-0.282-0.082-0.425-0.125c-0.064-0.373-0.124-0.763-0.179-1.184c-0.268-2.054-0.375-4.152-0.467-6.199
			c0.309,0.245,0.656,0.437,1.032,0.582l-0.011,0.25l-0.097,0.438l0.968,1.214l0.075,0.415c0,0,0.353,0.096,0.395,0.096
			c0.043,0,0.787,0.562,0.787,0.562v2.193l0.267,0.074l-0.182,1.012l0.447,0.596L11.105,36.527z M8.137,27.071l0.979,0.074
			l0.096,0.799l-0.368,0.258c-0.594-0.225-1.089-0.565-1.416-1.088c-0.021-0.292-0.049-0.601-0.084-0.923l0.028,0.008L8.137,27.071z
			 M8.988,21.034l-0.206-0.111c0.1-0.068,0.198-0.129,0.294-0.174L8.94,20.458l0.168-0.182h0.423L8.988,21.034z M10.123,21.034
			l-0.185,0.184H9.531l0.064-0.279l0.191-0.016l0.04-0.096l0.296-0.041L10.123,21.034L10.123,21.034z M10.218,20.531l-0.192,0.124
			l-0.239,0.043c0,0,0-0.382,0-0.422h0.432L10.218,20.531L10.218,20.531z M10.581,20.236l0.196,0.122l-0.156,0.129l-0.155-0.129
			L10.581,20.236z M10.321,20.554h0.032l0.487,0.144v0.248h-0.407l-0.112-0.16V20.554z M10.002,19.868l0.265,0.24l-0.265,0.064
			V19.868z M9.866,19.909v0.264H9.099l-0.286-0.081l0.072-0.183l0.366-0.152h0.504v0.152H9.866z M8.724,18.862L8.621,19.27
			l-0.328,0.104l-0.061-0.124c0.127-0.143,0.265-0.275,0.405-0.408L8.724,18.862z M6.905,16.859v-0.023h0.279l0.025-0.097h0.457v0.2
			l-0.132,0.175h-0.63L6.905,16.859L6.905,16.859z M7.354,17.482c0,0,0.279-0.049,0.302-0.049c0.024,0,0,0.279,0,0.279l-0.631,0.041
			l-0.119-0.145L7.354,17.482z M6.049,24.183c0.002,0.284,0.011,0.567,0.032,0.851l-0.164-0.36L6.049,24.183z M7.054,35.358
			c-2.577-0.735-3.887-1.347-4.754-3.765l-0.231-0.637c-0.471-1.285-1.004-2.742-1.184-4.044c-0.362-2.636,0.021-5.75,1.101-9.015
			l0.063-0.066h1.097l0.394,0.351l-0.021,0.544l0.329,0.308l-0.276,0.198l0.064,0.718l-0.989,1.203v1.128l0.531,0.256v1.013
			l0.51,0.871l0.416,0.063l0.052-0.299L3.668,23.43l-0.096-0.732h0.286l0.122,0.755l0.709,1.032l-0.184,0.334l0.449,0.688
			l1.118,0.274v-0.179l0.073,0.01c0.087,0.602,0.243,1.186,0.522,1.714c0.008,0.015,0.019,0.022,0.026,0.037
			c0.001,0.021,0.003,0.042,0.004,0.062l0.015,0.328c0.1,2.241,0.203,4.56,0.499,6.836c0.039,0.297,0.08,0.576,0.123,0.851
			C7.243,35.414,7.146,35.385,7.054,35.358z M18.655,42.368c-2.24,1.919-4.821,0.802-6.589-0.473
			c-2.332-1.681-3.245-3.087-3.762-5.388c0.014,0.004,0.026,0.008,0.04,0.012c1.03,0.309,2.087,0.623,3.126,0.878l0.21,0.368
			l0.757,0.662l0.762,0.016l0.074-0.245l-0.56-0.472l0.007-0.051c0.754,0.152,1.523,0.35,2.27,0.543
			c1.483,0.386,3.018,0.785,4.544,0.857c0.377,0.018,0.761,0.041,1.147,0.062C20.408,40.385,19.626,41.538,18.655,42.368z
			 M27.178,38.047c-1.742,0.543-3.716,0.498-5.665,0.392c0.054-1.052-0.223-2.121-0.942-3.104c0.351-0.103,0.92-0.168,0.92-0.168
			l-0.152-0.498l-1.069,0.012l-0.657-1.256l2.407-1.468c0,0-0.091-0.454-0.417-0.448c-0.327,0.006-2.409,0.947-2.409,0.947
			s-0.851-1.309-0.964-1.406c-0.113-0.097-0.341-0.432-0.704-0.133c-0.361,0.301-0.222,0.594-0.133,0.741
			c0.088,0.147,0.753,1.259,0.753,1.259s-1.771,1.651-1.858,1.965c-0.087,0.312,0.158,0.578,0.158,0.578l2.349-1.572l0.945,1.178
			l-0.414,0.808l0.197,0.529c0,0,0.223-0.322,0.458-0.604c0.608,0.84,0.846,1.729,0.806,2.602c-0.008,0-0.017,0-0.024-0.001
			c-0.402-0.024-0.8-0.048-1.192-0.067c-1.448-0.068-2.944-0.458-4.391-0.834c-0.757-0.195-1.539-0.396-2.313-0.554l0.002-0.026
			l-0.139-0.004c-0.002-0.001-0.005-0.002-0.007-0.002c-0.091-0.018-0.185-0.042-0.276-0.061L12.3,36.663l0.314-0.304l0.044-0.229
			l-0.354-0.101l0.021-0.213l0.501-0.077l0.761-0.365l0.255-0.468l0.799-1.022l-0.181-0.799l0.245-0.426l0.734,0.021l0.494-0.392
			l0.16-1.541l0.548-0.696l0.021-0.103c0.454-0.137,0.881-0.317,1.278-0.553c0.054-0.017,0.111-0.026,0.165-0.044
			c0.47-0.151,0.896-0.338,1.308-0.516c0.622-0.271,1.21-0.527,1.923-0.664c0.448-0.086,0.907-0.156,1.37-0.217l-0.083,0.859
			l0.899,1.586l-0.474,0.902l0.032,0.429l0.372,0.372v1.023l0.488,0.656v0.852h1.448l1.087-1.115l0.341-0.607l0.435-0.097v-0.511
			l0.161-0.19c0.243,0.052,0.487,0.103,0.724,0.149c0.145,0.029,0.278,0.058,0.417,0.086l-0.013,0.02l-0.267,0.311v0.562
			l0.361,0.354l0.329-0.53l0.37-0.541c0.037,0.01,0.081,0.019,0.117,0.026l0.357,0.093c1.03,0.261,2.085,0.513,3.124,0.712
			C31.696,35.653,29.772,37.235,27.178,38.047z M39.574,32.926c-1.846,0.062-3.747,0.11-5.534-0.139
			c0.084-0.193,0.177-0.379,0.253-0.581c0.03-0.077,0.067-0.167,0.106-0.262c0.14-0.336,0.298-0.717,0.317-1.037
			c0.139-1.96-0.958-2.89-2.183-3.667c0.746-0.057,1.477-0.1,2.194-0.122l0.008,0.002l0.002-0.002
			c0.046-0.002,0.093-0.005,0.139-0.006l-0.046,0.063l0.134,0.361l0.484-0.179l0.026-0.256c0.964-0.009,1.902,0.03,2.819,0.134
			l1.346,1.291l0.081-0.255l-0.659-0.941c0.604,0.095,1.196,0.23,1.782,0.396l-0.735,0.397v0.598l0.371,0.492h0.938l0.119-0.305
			l0.212-0.191v-0.141l0.132-0.086v-0.441l0.491,0.17c0.081,0.028,0.161,0.058,0.241,0.084c0.045,0.373,0.104,0.729,0.185,1.045
			c0.051,0.199,0.115,0.394,0.188,0.584l-0.095,0.015l-0.025,0.147l-0.325,0.035h-0.017v0.224h0.248v-0.112h0.256V30.11l0.029,0.004
			c0.152,0.373,0.328,0.731,0.511,1.083h-0.18v-0.234l-0.625,0.049l-0.989,1.127l-0.524,0.008l-0.584,0.402l-0.009,0.356
			C40.296,32.914,39.936,32.915,39.574,32.926z"/>
		<polygon points="49.402,34.758 49.172,34.803 49.164,34.281 48.74,34.309 48.688,35.123 48.314,35.379 47.622,35.473 
			46.514,36.262 46.327,36.416 46.327,36.678 46.907,36.59 48.31,35.729 48.708,35.469 49.133,35.28 49.559,35.038 		"/>
		<polygon points="42.501,29.936 42.667,29.988 42.716,29.82 42.501,29.82 		"/>
		<rect x="41.494" y="29.988" width="0.256" height="0.143"/>
		<polygon points="42.118,30.131 42.277,30.131 42.277,30.008 42.392,29.988 42.392,29.867 42.138,29.867 42.033,29.988 
			41.882,30.131 41.882,30.254 42.118,30.229 		"/>
		<path d="M3.432,19.137l0.055-0.336l-0.346-0.054c0,0.021,0.025,0.39,0.051,0.39C3.219,19.137,3.432,19.137,3.432,19.137z"/>
		<polygon points="20.489,19.53 20.862,19.53 21.357,19.483 21.612,19.178 21.341,19.073 21.192,18.903 20.968,18.541 
			20.862,18.028 20.44,18.114 20.323,18.295 20.323,18.498 20.526,18.637 20.813,18.817 20.84,19.024 20.532,19.089 		"/>
		<polygon points="19.887,18.683 19.633,19.093 19.633,19.361 19.929,19.361 20.457,18.987 20.479,18.711 20.233,18.604 		"/>
		<path d="M13.292,20.358h-0.367v0.188h0.088c0,0,0.004,0.041,0.012,0.093l0.225-0.019l0.141-0.088l0.037-0.175l0.183-0.016
			l0.07-0.149l-0.166-0.034l-0.146,0.004L13.292,20.358z"/>
		<polygon points="12.407,20.691 12.675,20.669 12.7,20.483 12.542,20.358 12.421,20.507 		"/>
	</g>
</g>
<g>
</g>
<g>
</g>
<g>
</g>
<g>
</g>
<g>
</g>
<g>
</g>
<g>
</g>
<g>
</g>
<g>
</g>
<g>
</g>
<g>
</g>
<g>
</g>
<g>
</g>
<g>
</g>
<g>
</g>
</svg>
